<?xml version="1.0" encoding="UTF-8" standalone="no"?>
<!DOCTYPE svg PUBLIC "-//W3C//DTD SVG 1.1//EN"
 "http://www.w3.org/Graphics/SVG/1.1/DTD/svg11.dtd">
<!-- Generated by graphviz version 8.1.0 (20230707.0739)
 -->
<!-- Title: jaut::ILogFormat Pages: 1 -->
<svg width="252pt" height="138pt"
 viewBox="0.00 0.00 251.50 138.25" xmlns="http://www.w3.org/2000/svg" xmlns:xlink="http://www.w3.org/1999/xlink">
<g id="graph0" class="graph" transform="scale(1 1) rotate(0) translate(4 134.25)">
<title>jaut::ILogFormat</title>
<!-- Node1 -->
<g id="Node000001" class="node">
<title>Node1</title>
<g id="a_Node000001"><a xlink:title="Provides an interface for custom and inbuilt sink formatters.">
<polygon fill="#999999" stroke="#666666" points="86.5,-74.25 0,-74.25 0,-55 86.5,-55 86.5,-74.25"/>
<text text-anchor="middle" x="43.25" y="-60.75" font-family="Helvetica,sans-Serif" font-size="10.00">jaut::ILogFormat</text>
</a>
</g>
</g>
<!-- Node2 -->
<g id="Node000002" class="node">
<title>Node2</title>
<g id="a_Node000002"><a xlink:href="../../db/d01/classjaut_1_1LogFormatCallback.html" target="_top" xlink:title="A simple formatter that can be used via a passed in lambda function or other invocable.">
<polygon fill="white" stroke="#666666" points="243.5,-130.25 122.5,-130.25 122.5,-111 243.5,-111 243.5,-130.25"/>
<text text-anchor="middle" x="183" y="-116.75" font-family="Helvetica,sans-Serif" font-size="10.00">jaut::LogFormatCallback</text>
</a>
</g>
</g>
<!-- Node1&#45;&gt;Node2 -->
<g id="edge1_Node000001_Node000002" class="edge">
<title>Node1&#45;&gt;Node2</title>
<g id="a_edge1_Node000001_Node000002"><a xlink:title=" ">
<path fill="none" stroke="#63b8ff" d="M72.36,-79.62C87.05,-87.1 105.47,-95.96 122.5,-102.62 129.84,-105.5 137.83,-108.19 145.5,-110.58"/>
<polygon fill="#63b8ff" stroke="#63b8ff" points="74.34,-76.18 63.85,-74.69 71.12,-82.4 74.34,-76.18"/>
</a>
</g>
</g>
<!-- Node3 -->
<g id="Node000003" class="node">
<title>Node3</title>
<g id="a_Node000003"><a xlink:href="../../d6/d52/classjaut_1_1LogFormatJson.html" target="_top" xlink:title="Provides a json formatter that will log all events as json objects.">
<polygon fill="white" stroke="#666666" points="235.25,-93.25 130.75,-93.25 130.75,-74 235.25,-74 235.25,-93.25"/>
<text text-anchor="middle" x="183" y="-79.75" font-family="Helvetica,sans-Serif" font-size="10.00">jaut::LogFormatJson</text>
</a>
</g>
</g>
<!-- Node1&#45;&gt;Node3 -->
<g id="edge2_Node000001_Node000003" class="edge">
<title>Node1&#45;&gt;Node3</title>
<g id="a_edge2_Node000001_Node000003"><a xlink:title=" ">
<path fill="none" stroke="#63b8ff" d="M97.41,-71.96C108.35,-73.47 119.85,-75.05 130.72,-76.55"/>
<polygon fill="#63b8ff" stroke="#63b8ff" points="98.09,-68.38 87.7,-70.48 97.13,-75.31 98.09,-68.38"/>
</a>
</g>
</g>
<!-- Node4 -->
<g id="Node000004" class="node">
<title>Node4</title>
<g id="a_Node000004"><a xlink:href="../../da/d59/classjaut_1_1LogFormatPattern.html" target="_top" xlink:title="Provides a simple and straightforward fmt pattern formatter.">
<polygon fill="white" stroke="#666666" points="240.5,-56.25 125.5,-56.25 125.5,-37 240.5,-37 240.5,-56.25"/>
<text text-anchor="middle" x="183" y="-42.75" font-family="Helvetica,sans-Serif" font-size="10.00">jaut::LogFormatPattern</text>
</a>
</g>
</g>
<!-- Node1&#45;&gt;Node4 -->
<g id="edge3_Node000001_Node000004" class="edge">
<title>Node1&#45;&gt;Node4</title>
<g id="a_edge3_Node000001_Node000004"><a xlink:title=" ">
<path fill="none" stroke="#63b8ff" d="M97.54,-57.66C106.62,-56.48 116.07,-55.24 125.24,-54.04"/>
<polygon fill="#63b8ff" stroke="#63b8ff" points="97.17,-54.31 87.7,-59.08 98.07,-61.25 97.17,-54.31"/>
</a>
</g>
</g>
<!-- Node5 -->
<g id="Node000005" class="node">
<title>Node5</title>
<g id="a_Node000005"><a xlink:href="../../d3/df5/classjaut_1_1LogFormatXml.html" target="_top" xlink:title="Provides a json formatter that will log all events as json objects.">
<polygon fill="white" stroke="#666666" points="233.38,-19.25 132.62,-19.25 132.62,0 233.38,0 233.38,-19.25"/>
<text text-anchor="middle" x="183" y="-5.75" font-family="Helvetica,sans-Serif" font-size="10.00">jaut::LogFormatXml</text>
</a>
</g>
</g>
<!-- Node1&#45;&gt;Node5 -->
<g id="edge4_Node000001_Node000005" class="edge">
<title>Node1&#45;&gt;Node5</title>
<g id="a_edge4_Node000001_Node000005"><a xlink:title=" ">
<path fill="none" stroke="#63b8ff" d="M73,-49.78C87.6,-42.56 105.75,-34.08 122.5,-27.62 129.85,-24.79 137.85,-22.11 145.53,-19.73"/>
<polygon fill="#63b8ff" stroke="#63b8ff" points="71.89,-46.92 64.52,-54.53 75.02,-53.18 71.89,-46.92"/>
</a>
</g>
</g>
</g>
</svg>
