<?xml version="1.0" encoding="UTF-8" standalone="no"?>
<!DOCTYPE svg PUBLIC "-//W3C//DTD SVG 1.1//EN"
 "http://www.w3.org/Graphics/SVG/1.1/DTD/svg11.dtd">
<!-- Generated by graphviz version 8.1.0 (20230707.0739)
 -->
<!-- Title: jaut::IMessageBuffer&lt; T &gt; Pages: 1 -->
<svg width="318pt" height="353pt"
 viewBox="0.00 0.00 317.50 353.12" xmlns="http://www.w3.org/2000/svg" xmlns:xlink="http://www.w3.org/1999/xlink">
<g id="graph0" class="graph" transform="scale(1 1) rotate(0) translate(4 349.12)">
<title>jaut::IMessageBuffer&lt; T &gt;</title>
<!-- Node1 -->
<g id="Node000001" class="node">
<title>Node1</title>
<g id="a_Node000001"><a xlink:title="The IMessageBuffer interface declares all needed virtual functions to craft your own message buffer.">
<polygon fill="#999999" stroke="#666666" points="127,-171.88 0,-171.88 0,-152.62 127,-152.62 127,-171.88"/>
<text text-anchor="middle" x="63.5" y="-158.38" font-family="Helvetica,sans-Serif" font-size="10.00">jaut::IMessageBuffer&lt; T &gt;</text>
</a>
</g>
</g>
<!-- Node2 -->
<g id="Node000002" class="node">
<title>Node2</title>
<g id="a_Node000002"><a xlink:href="../../d2/d9c/classjaut_1_1AtomicRingBuffer.html" target="_top" xlink:title=" ">
<polygon fill="white" stroke="#666666" points="309.5,-345.12 163,-345.12 163,-303.38 309.5,-303.38 309.5,-345.12"/>
<text text-anchor="start" x="171" y="-331.62" font-family="Helvetica,sans-Serif" font-size="10.00">jaut::AtomicRingBuffer</text>
<text text-anchor="start" x="171" y="-320.38" font-family="Helvetica,sans-Serif" font-size="10.00">&lt; static_cast&lt; int &gt;(BufferSize</text>
<text text-anchor="middle" x="236.25" y="-309.12" font-family="Helvetica,sans-Serif" font-size="10.00"> *1.5), WaybackMessage &gt;</text>
</a>
</g>
</g>
<!-- Node1&#45;&gt;Node2 -->
<g id="edge1_Node000001_Node000002" class="edge">
<title>Node1&#45;&gt;Node2</title>
<g id="a_edge1_Node000001_Node000002"><a xlink:title=" ">
<path fill="none" stroke="#63b8ff" d="M74.65,-181.88C90.19,-210.21 122.39,-262.63 163,-294.25 167.07,-297.42 171.53,-300.31 176.16,-302.94"/>
<polygon fill="#63b8ff" stroke="#63b8ff" points="77.33,-180.46 69.53,-173.29 71.16,-183.76 77.33,-180.46"/>
</a>
</g>
</g>
<!-- Node3 -->
<g id="Node000003" class="node">
<title>Node3</title>
<g id="a_Node000003"><a xlink:href="../../d2/d9c/classjaut_1_1AtomicRingBuffer.html" target="_top" xlink:title=" ">
<polygon fill="white" stroke="#666666" points="301.25,-285.5 171.25,-285.5 171.25,-255 301.25,-255 301.25,-285.5"/>
<text text-anchor="start" x="179.25" y="-272" font-family="Helvetica,sans-Serif" font-size="10.00">jaut::AtomicRingBuffer</text>
<text text-anchor="middle" x="236.25" y="-260.75" font-family="Helvetica,sans-Serif" font-size="10.00">&lt; 512, jaut::LogMessage &gt;</text>
</a>
</g>
</g>
<!-- Node1&#45;&gt;Node3 -->
<g id="edge2_Node000001_Node000003" class="edge">
<title>Node1&#45;&gt;Node3</title>
<g id="a_edge2_Node000001_Node000003"><a xlink:title=" ">
<path fill="none" stroke="#63b8ff" d="M81.12,-180.02C99.54,-198.8 130.91,-228.16 163,-246.25 168.53,-249.37 174.52,-252.16 180.61,-254.64"/>
<polygon fill="#63b8ff" stroke="#63b8ff" points="84.06,-177.99 74.61,-173.21 79.02,-182.85 84.06,-177.99"/>
</a>
</g>
</g>
<!-- Node4 -->
<g id="Node000004" class="node">
<title>Node4</title>
<g id="a_Node000004"><a xlink:href="../../d2/d9c/classjaut_1_1AtomicRingBuffer.html" target="_top" xlink:title=" ">
<polygon fill="white" stroke="#666666" points="301.62,-237.12 170.88,-237.12 170.88,-195.38 301.62,-195.38 301.62,-237.12"/>
<text text-anchor="start" x="178.88" y="-223.62" font-family="Helvetica,sans-Serif" font-size="10.00">jaut::AtomicRingBuffer</text>
<text text-anchor="start" x="178.88" y="-212.38" font-family="Helvetica,sans-Serif" font-size="10.00">&lt; static_cast&lt; int &gt;(16</text>
<text text-anchor="middle" x="236.25" y="-201.12" font-family="Helvetica,sans-Serif" font-size="10.00"> *1.5), WaybackMessage &gt;</text>
</a>
</g>
</g>
<!-- Node1&#45;&gt;Node4 -->
<g id="edge3_Node000001_Node000004" class="edge">
<title>Node1&#45;&gt;Node4</title>
<g id="a_edge3_Node000001_Node000004"><a xlink:title=" ">
<path fill="none" stroke="#63b8ff" d="M106.47,-175.52C125.74,-181.62 149.02,-188.98 170.46,-195.76"/>
<polygon fill="#63b8ff" stroke="#63b8ff" points="107.81,-171.96 97.22,-172.28 105.7,-178.63 107.81,-171.96"/>
</a>
</g>
</g>
<!-- Node5 -->
<g id="Node000005" class="node">
<title>Node5</title>
<g id="a_Node000005"><a xlink:href="../../d2/d9c/classjaut_1_1AtomicRingBuffer.html" target="_top" xlink:title=" ">
<polygon fill="white" stroke="#666666" points="292.25,-177.5 180.25,-177.5 180.25,-147 292.25,-147 292.25,-177.5"/>
<text text-anchor="start" x="188.25" y="-164" font-family="Helvetica,sans-Serif" font-size="10.00">jaut::AtomicRingBuffer</text>
<text text-anchor="middle" x="236.25" y="-152.75" font-family="Helvetica,sans-Serif" font-size="10.00">&lt; 16 &gt;</text>
</a>
</g>
</g>
<!-- Node1&#45;&gt;Node5 -->
<g id="edge4_Node000001_Node000005" class="edge">
<title>Node1&#45;&gt;Node5</title>
<g id="a_edge4_Node000001_Node000005"><a xlink:title=" ">
<path fill="none" stroke="#63b8ff" d="M137.81,-162.25C151.95,-162.25 166.53,-162.25 179.98,-162.25"/>
<polygon fill="#63b8ff" stroke="#63b8ff" points="138.11,-158.75 128.11,-162.25 138.11,-165.75 138.11,-158.75"/>
</a>
</g>
</g>
<!-- Node6 -->
<g id="Node000006" class="node">
<title>Node6</title>
<g id="a_Node000006"><a xlink:href="../../de/d63/classjaut_1_1SimpleRingBuffer.html" target="_top" xlink:title=" ">
<polygon fill="white" stroke="#666666" points="301.25,-128.5 171.25,-128.5 171.25,-98 301.25,-98 301.25,-128.5"/>
<text text-anchor="start" x="179.25" y="-115" font-family="Helvetica,sans-Serif" font-size="10.00">jaut::SimpleRingBuffer</text>
<text text-anchor="middle" x="236.25" y="-103.75" font-family="Helvetica,sans-Serif" font-size="10.00">&lt; 512, jaut::LogMessage &gt;</text>
</a>
</g>
</g>
<!-- Node1&#45;&gt;Node6 -->
<g id="edge5_Node000001_Node000006" class="edge">
<title>Node1&#45;&gt;Node6</title>
<g id="a_edge5_Node000001_Node000006"><a xlink:title=" ">
<path fill="none" stroke="#63b8ff" d="M110.03,-149.18C131.69,-142.97 157.76,-135.49 180.49,-128.96"/>
<polygon fill="#63b8ff" stroke="#63b8ff" points="109.11,-146.09 100.47,-152.22 111.04,-152.82 109.11,-146.09"/>
</a>
</g>
</g>
<!-- Node7 -->
<g id="Node000007" class="node">
<title>Node7</title>
<g id="a_Node000007"><a xlink:href="../../d2/d9c/classjaut_1_1AtomicRingBuffer.html" target="_top" xlink:title="A simple SPSC queue implementation that allows pushing and popping from two different threads.">
<polygon fill="white" stroke="#666666" points="292.25,-79.5 180.25,-79.5 180.25,-49 292.25,-49 292.25,-79.5"/>
<text text-anchor="start" x="188.25" y="-66" font-family="Helvetica,sans-Serif" font-size="10.00">jaut::AtomicRingBuffer</text>
<text text-anchor="middle" x="236.25" y="-54.75" font-family="Helvetica,sans-Serif" font-size="10.00">&lt; BufferSize, T &gt;</text>
</a>
</g>
</g>
<!-- Node1&#45;&gt;Node7 -->
<g id="edge6_Node000001_Node000007" class="edge">
<title>Node1&#45;&gt;Node7</title>
<g id="a_edge6_Node000001_Node000007"><a xlink:title=" ">
<path fill="none" stroke="#63b8ff" d="M83.68,-145.24C102.71,-129.07 133.26,-104.94 163,-89.25 169.46,-85.84 176.47,-82.75 183.51,-79.98"/>
<polygon fill="#63b8ff" stroke="#63b8ff" points="81.83,-143.08 76.56,-152.26 86.41,-148.37 81.83,-143.08"/>
</a>
</g>
</g>
<!-- Node8 -->
<g id="Node000008" class="node">
<title>Node8</title>
<g id="a_Node000008"><a xlink:href="../../de/d63/classjaut_1_1SimpleRingBuffer.html" target="_top" xlink:title="A simple queue implementation that allows pushing and popping from single threads.">
<polygon fill="white" stroke="#666666" points="291.88,-30.5 180.62,-30.5 180.62,0 291.88,0 291.88,-30.5"/>
<text text-anchor="start" x="188.62" y="-17" font-family="Helvetica,sans-Serif" font-size="10.00">jaut::SimpleRingBuffer</text>
<text text-anchor="middle" x="236.25" y="-5.75" font-family="Helvetica,sans-Serif" font-size="10.00">&lt; BufferSize, T &gt;</text>
</a>
</g>
</g>
<!-- Node1&#45;&gt;Node8 -->
<g id="edge7_Node000001_Node000008" class="edge">
<title>Node1&#45;&gt;Node8</title>
<g id="a_edge7_Node000001_Node000008"><a xlink:title=" ">
<path fill="none" stroke="#63b8ff" d="M75.47,-142.68C91.42,-115.9 123.47,-68.02 163,-40.25 168.32,-36.51 174.25,-33.29 180.37,-30.52"/>
<polygon fill="#63b8ff" stroke="#63b8ff" points="71.97,-140.72 69.99,-151.13 78.03,-144.24 71.97,-140.72"/>
</a>
</g>
</g>
</g>
</svg>
