<?xml version="1.0" encoding="UTF-8" standalone="no"?>
<!DOCTYPE svg PUBLIC "-//W3C//DTD SVG 1.1//EN"
 "http://www.w3.org/Graphics/SVG/1.1/DTD/svg11.dtd">
<!-- Generated by graphviz version 8.1.0 (20230707.0739)
 -->
<!-- Title: jaut::IConfigParser Pages: 1 -->
<svg width="194pt" height="83pt"
 viewBox="0.00 0.00 193.88 82.50" xmlns="http://www.w3.org/2000/svg" xmlns:xlink="http://www.w3.org/1999/xlink">
<g id="graph0" class="graph" transform="scale(1 1) rotate(0) translate(4 78.5)">
<title>jaut::IConfigParser</title>
<!-- Node1 -->
<g id="Node000001" class="node">
<title>Node1</title>
<g id="a_Node000001"><a xlink:title="An interfaces to provide the bare&#45;bones for a new parser class to use in the jaut::Config class.">
<polygon fill="#999999" stroke="#666666" points="141.25,-74.5 46.5,-74.5 46.5,-55.25 141.25,-55.25 141.25,-74.5"/>
<text text-anchor="middle" x="93.88" y="-61" font-family="Helvetica,sans-Serif" font-size="10.00">jaut::IConfigParser</text>
</a>
</g>
</g>
<!-- Node2 -->
<g id="Node000002" class="node">
<title>Node2</title>
<g id="a_Node000002"><a xlink:href="../../d6/dd4/classjaut_1_1JsonParser.html" target="_top" xlink:title="The JsonParser is an in&#45;built parser for the Config class used for parsing Json style config files.">
<polygon fill="white" stroke="#666666" points="85.75,-19.25 0,-19.25 0,0 85.75,0 85.75,-19.25"/>
<text text-anchor="middle" x="42.88" y="-5.75" font-family="Helvetica,sans-Serif" font-size="10.00">jaut::JsonParser</text>
</a>
</g>
</g>
<!-- Node1&#45;&gt;Node2 -->
<g id="edge1_Node000001_Node000002" class="edge">
<title>Node1&#45;&gt;Node2</title>
<g id="a_edge1_Node000001_Node000002"><a xlink:title=" ">
<path fill="none" stroke="#63b8ff" d="M78.05,-47.35C69.29,-38.2 58.73,-27.18 51.48,-19.61"/>
<polygon fill="#63b8ff" stroke="#63b8ff" points="75.01,-49.28 84.45,-54.08 80.06,-44.44 75.01,-49.28"/>
</a>
</g>
</g>
<!-- Node3 -->
<g id="Node000003" class="node">
<title>Node3</title>
<g id="a_Node000003"><a xlink:href="../../de/db3/classjaut_1_1XmlParser.html" target="_top" xlink:title="The XmlParser is an in&#45;built parser for the Config class used for parsing Xml style config files.">
<polygon fill="white" stroke="#666666" points="185.88,-19.25 103.88,-19.25 103.88,0 185.88,0 185.88,-19.25"/>
<text text-anchor="middle" x="144.88" y="-5.75" font-family="Helvetica,sans-Serif" font-size="10.00">jaut::XmlParser</text>
</a>
</g>
</g>
<!-- Node1&#45;&gt;Node3 -->
<g id="edge2_Node000001_Node000003" class="edge">
<title>Node1&#45;&gt;Node3</title>
<g id="a_edge2_Node000001_Node000003"><a xlink:title=" ">
<path fill="none" stroke="#63b8ff" d="M109.7,-47.35C118.46,-38.2 129.02,-27.18 136.27,-19.61"/>
<polygon fill="#63b8ff" stroke="#63b8ff" points="107.69,-44.44 103.3,-54.08 112.74,-49.28 107.69,-44.44"/>
</a>
</g>
</g>
</g>
</svg>
