<?xml version="1.0" encoding="UTF-8" standalone="no"?>
<!DOCTYPE svg PUBLIC "-//W3C//DTD SVG 1.1//EN"
 "http://www.w3.org/Graphics/SVG/1.1/DTD/svg11.dtd">
<!-- Generated by graphviz version 8.1.0 (20230707.0739)
 -->
<!-- Title: jaut::ILogSink Pages: 1 -->
<svg width="270pt" height="162pt"
 viewBox="0.00 0.00 270.25 161.88" xmlns="http://www.w3.org/2000/svg" xmlns:xlink="http://www.w3.org/1999/xlink">
<g id="graph0" class="graph" transform="scale(1 1) rotate(0) translate(4 157.88)">
<title>jaut::ILogSink</title>
<!-- Node1 -->
<g id="Node000001" class="node">
<title>Node1</title>
<g id="a_Node000001"><a xlink:title="Sinks are the actual output implementations, they will be there to map a logger to an output stream.">
<polygon fill="#999999" stroke="#666666" points="75.25,-83.25 0,-83.25 0,-64 75.25,-64 75.25,-83.25"/>
<text text-anchor="middle" x="37.62" y="-69.75" font-family="Helvetica,sans-Serif" font-size="10.00">jaut::ILogSink</text>
</a>
</g>
</g>
<!-- Node2 -->
<g id="Node000002" class="node">
<title>Node2</title>
<g id="a_Node000002"><a xlink:href="../../dc/d84/classjaut_1_1LogSinkOstream.html" target="_top" xlink:title=" ">
<polygon fill="white" stroke="#666666" points="262.25,-153.88 111.25,-153.88 111.25,-123.38 262.25,-123.38 262.25,-153.88"/>
<text text-anchor="start" x="119.25" y="-140.38" font-family="Helvetica,sans-Serif" font-size="10.00">jaut::LogSinkOstream</text>
<text text-anchor="middle" x="186.75" y="-129.12" font-family="Helvetica,sans-Serif" font-size="10.00">&lt; juce::DummyCriticalSection &gt;</text>
</a>
</g>
</g>
<!-- Node1&#45;&gt;Node2 -->
<g id="edge1_Node000001_Node000002" class="edge">
<title>Node1&#45;&gt;Node2</title>
<g id="a_edge1_Node000001_Node000002"><a xlink:title=" ">
<path fill="none" stroke="#63b8ff" d="M63.55,-89.36C77.27,-97.59 94.81,-107.43 111.25,-114.62 117.97,-117.57 125.17,-120.34 132.35,-122.88"/>
<polygon fill="#63b8ff" stroke="#63b8ff" points="65.66,-85.93 55.3,-83.7 62.01,-91.91 65.66,-85.93"/>
</a>
</g>
</g>
<!-- Node3 -->
<g id="Node000003" class="node">
<title>Node3</title>
<g id="a_Node000003"><a xlink:href="../../d7/d04/classjaut_1_1LogSinkFile.html" target="_top" xlink:title="A Logger output sink for log files.">
<polygon fill="white" stroke="#666666" points="230.75,-105.25 142.75,-105.25 142.75,-86 230.75,-86 230.75,-105.25"/>
<text text-anchor="middle" x="186.75" y="-91.75" font-family="Helvetica,sans-Serif" font-size="10.00">jaut::LogSinkFile</text>
</a>
</g>
</g>
<!-- Node1&#45;&gt;Node3 -->
<g id="edge2_Node000001_Node000003" class="edge">
<title>Node1&#45;&gt;Node3</title>
<g id="a_edge2_Node000001_Node000003"><a xlink:title=" ">
<path fill="none" stroke="#63b8ff" d="M86.01,-80.71C104.13,-83.42 124.69,-86.5 142.42,-89.15"/>
<polygon fill="#63b8ff" stroke="#63b8ff" points="86.78,-77.14 76.37,-79.12 85.74,-84.06 86.78,-77.14"/>
</a>
</g>
</g>
<!-- Node4 -->
<g id="Node000004" class="node">
<title>Node4</title>
<g id="a_Node000004"><a xlink:href="../../dc/d84/classjaut_1_1LogSinkOstream.html" target="_top" xlink:title="A Logger output sink for the standard std::ostream.">
<polygon fill="white" stroke="#666666" points="241.62,-67.88 131.88,-67.88 131.88,-37.38 241.62,-37.38 241.62,-67.88"/>
<text text-anchor="start" x="139.88" y="-54.38" font-family="Helvetica,sans-Serif" font-size="10.00">jaut::LogSinkOstream</text>
<text text-anchor="middle" x="186.75" y="-43.12" font-family="Helvetica,sans-Serif" font-size="10.00">&lt; CriticalSection &gt;</text>
</a>
</g>
</g>
<!-- Node1&#45;&gt;Node4 -->
<g id="edge3_Node000001_Node000004" class="edge">
<title>Node1&#45;&gt;Node4</title>
<g id="a_edge3_Node000001_Node000004"><a xlink:title=" ">
<path fill="none" stroke="#63b8ff" d="M86.08,-66.85C100.54,-64.79 116.55,-62.5 131.42,-60.38"/>
<polygon fill="#63b8ff" stroke="#63b8ff" points="85.78,-63.5 76.37,-68.38 86.77,-70.43 85.78,-63.5"/>
</a>
</g>
</g>
<!-- Node5 -->
<g id="Node000005" class="node">
<title>Node5</title>
<g id="a_Node000005"><a xlink:href="../../df/d8c/classjaut_1_1LogSinkRotatingFile.html" target="_top" xlink:title="A Logger output sink for log files.">
<polygon fill="white" stroke="#666666" points="248.75,-19.25 124.75,-19.25 124.75,0 248.75,0 248.75,-19.25"/>
<text text-anchor="middle" x="186.75" y="-5.75" font-family="Helvetica,sans-Serif" font-size="10.00">jaut::LogSinkRotatingFile</text>
</a>
</g>
</g>
<!-- Node1&#45;&gt;Node5 -->
<g id="edge4_Node000001_Node000005" class="edge">
<title>Node1&#45;&gt;Node5</title>
<g id="a_edge4_Node000001_Node000005"><a xlink:title=" ">
<path fill="none" stroke="#63b8ff" d="M60.67,-57.49C74.59,-47.95 93.28,-36.27 111.25,-28.62 119.48,-25.12 128.5,-22.15 137.34,-19.68"/>
<polygon fill="#63b8ff" stroke="#63b8ff" points="59.03,-55.07 52.87,-63.68 63.06,-60.8 59.03,-55.07"/>
</a>
</g>
</g>
</g>
</svg>
