<?xml version="1.0" encoding="UTF-8" standalone="no"?>
<!-- Created with Inkscape (http://www.inkscape.org/) -->

<svg
   version="1.1"
   id="svg1"
   width="99.519997"
   height="136.64"
   viewBox="0 0 99.519997 136.64"
   sodipodi:docname="logo.png"
   xmlns:inkscape="http://www.inkscape.org/namespaces/inkscape"
   xmlns:sodipodi="http://sodipodi.sourceforge.net/DTD/sodipodi-0.dtd"
   xmlns="http://www.w3.org/2000/svg"
   xmlns:svg="http://www.w3.org/2000/svg">
  <defs
     id="defs1">
    <inkscape:path-effect
       effect="fillet_chamfer"
       id="path-effect28"
       is_visible="true"
       lpeversion="1"
       nodesatellites_param="F,0,1,1,0,3.0597862,0,1 @ F,0,0,1,0,3.0597862,0,1 @ F,0,0,1,0,0,0,1 @ F,0,0,1,0,0,0,1"
       radius="0"
       unit="px"
       method="auto"
       mode="F"
       chamfer_steps="1"
       flexible="false"
       use_knot_distance="true"
       apply_no_radius="true"
       apply_with_radius="true"
       only_selected="false"
       hide_knots="false" />
    <inkscape:path-effect
       effect="fillet_chamfer"
       id="path-effect24"
       is_visible="true"
       lpeversion="1"
       nodesatellites_param="F,0,0,1,0,4.1462374,0,1 @ F,0,1,1,0,0,0,1 @ F,0,1,1,0,0,0,1 @ F,0,0,1,0,4.1462374,0,1 | F,0,0,1,0,1.2709257,0,1 @ F,0,0,1,0,1.2709257,0,1 @ F,0,1,1,0,0,0,1 @ F,0,1,1,0,0,0,1"
       radius="0"
       unit="px"
       method="auto"
       mode="F"
       chamfer_steps="1"
       flexible="false"
       use_knot_distance="true"
       apply_no_radius="true"
       apply_with_radius="true"
       only_selected="false"
       hide_knots="false" />
    <inkscape:path-effect
       effect="fillet_chamfer"
       id="path-effect22"
       is_visible="true"
       lpeversion="1"
       nodesatellites_param="F,0,0,1,0,4.1462374,0,1 @ F,0,0,1,0,4.1462374,0,1 @ F,0,0,1,0,4.1462374,0,1 @ F,0,0,1,0,4.1462374,0,1 | F,0,1,1,0,1.2709257,0,1 @ F,0,1,1,0,1.2709257,0,1 @ F,0,1,1,0,1.2709257,0,1 @ F,0,1,1,0,1.2709257,0,1"
       radius="0"
       unit="px"
       method="auto"
       mode="F"
       chamfer_steps="1"
       flexible="false"
       use_knot_distance="true"
       apply_no_radius="true"
       apply_with_radius="true"
       only_selected="false"
       hide_knots="false" />
    <inkscape:path-effect
       effect="fillet_chamfer"
       id="path-effect20"
       is_visible="true"
       lpeversion="1"
       nodesatellites_param="F,0,0,1,0,4.1462374,0,1 @ F,0,0,1,0,4.1462374,0,1 @ F,0,0,1,0,4.1462374,0,1 @ F,0,0,1,0,4.1462374,0,1 | F,0,1,1,0,1.2709257,0,1 @ F,0,1,1,0,1.2709257,0,1 @ F,0,1,1,0,1.2709257,0,1 @ F,0,1,1,0,1.2709257,0,1"
       radius="0"
       unit="px"
       method="auto"
       mode="F"
       chamfer_steps="1"
       flexible="false"
       use_knot_distance="true"
       apply_no_radius="true"
       apply_with_radius="true"
       only_selected="false"
       hide_knots="false" />
  </defs>
  <sodipodi:namedview
     id="namedview1"
     pagecolor="#505050"
     bordercolor="#ffffff"
     borderopacity="1"
     inkscape:showpageshadow="0"
     inkscape:pageopacity="0"
     inkscape:pagecheckerboard="1"
     inkscape:deskcolor="#505050" />
  <g
     id="layer1"
     inkscape:label="VECTORISED"
     transform="matrix(0.94424478,0,0,0.94424478,3.0734109,3.0298351)">
    <g
       id="layer4"
       inkscape:label="Balls"
       transform="translate(-0.52952371,0.52952371)">
      <ellipse
         style="fill:none;stroke:#ffffff;stroke-width:2.539;stroke-dasharray:none;stroke-opacity:1"
         id="ellipse2"
         cx="85.216187"
         cy="97.315651"
         rx="7.7105985"
         ry="7.7104974" />
      <ellipse
         style="fill:none;stroke:#ffffff;stroke-width:2.539;stroke-dasharray:none;stroke-opacity:1"
         id="ellipse3"
         cx="73.149101"
         cy="108.43549"
         rx="7.7105985"
         ry="7.7104974" />
      <ellipse
         style="fill:none;stroke:#ffffff;stroke-width:2.539;stroke-dasharray:none;stroke-opacity:1"
         id="ellipse4"
         cx="88.222664"
         cy="112.63632"
         rx="7.7105985"
         ry="7.7104974" />
      <ellipse
         style="fill:none;stroke:#ffffff;stroke-width:2.539;stroke-dasharray:none;stroke-opacity:1"
         id="ellipse5"
         cx="58.116722"
         cy="104.11111"
         rx="7.7105985"
         ry="7.7104974" />
      <ellipse
         style="fill:none;stroke:#ffffff;stroke-width:2.539;stroke-dasharray:none;stroke-opacity:1"
         id="ellipse6"
         cx="61.040829"
         cy="119.43178"
         rx="7.7105985"
         ry="7.7104974" />
      <ellipse
         style="fill:none;stroke:#ffffff;stroke-width:2.539;stroke-dasharray:none;stroke-opacity:1"
         id="ellipse7"
         cx="76.155579"
         cy="123.67379"
         rx="7.7105985"
         ry="7.7104974" />
      <ellipse
         style="fill:none;stroke:#ffffff;stroke-width:2.539;stroke-dasharray:none;stroke-opacity:1"
         id="ellipse8"
         cx="90.982033"
         cy="128.16292"
         rx="7.7105985"
         ry="7.7104974" />
      <ellipse
         style="fill:none;stroke:#ffffff;stroke-width:2.539;stroke-dasharray:none;stroke-opacity:1"
         id="path1"
         cx="70.183807"
         cy="93.073639"
         rx="7.7105985"
         ry="7.7104974" />
      <rect
         style="opacity:1;fill:#ffffff;fill-opacity:1;stroke:none;stroke-width:2.539;stroke-dasharray:none;stroke-opacity:1"
         id="rect8"
         width="1.8121276"
         height="1.7091621"
         x="83.769478"
         y="120.44437" />
      <rect
         style="opacity:1;fill:#ffffff;fill-opacity:1;stroke:none;stroke-width:2.539;stroke-dasharray:none;stroke-opacity:1"
         id="rect9"
         width="1.8121276"
         height="1.7091621"
         x="78.469292"
         y="114.27052" />
      <rect
         style="opacity:1;fill:#ffffff;fill-opacity:1;stroke:none;stroke-width:2.539;stroke-dasharray:none;stroke-opacity:1"
         id="rect10"
         width="1.8121276"
         height="1.7091621"
         x="81.090263"
         y="105.00976" />
      <rect
         style="opacity:1;fill:#ffffff;fill-opacity:1;stroke:none;stroke-width:2.539;stroke-dasharray:none;stroke-opacity:1"
         id="rect11"
         width="1.8121276"
         height="1.7091621"
         x="75.440613"
         y="98.9524" />
      <rect
         style="opacity:1;fill:#ffffff;fill-opacity:1;stroke:none;stroke-width:2.539;stroke-dasharray:none;stroke-opacity:1"
         id="rect12"
         width="1.8121276"
         height="1.7091621"
         x="65.888626"
         y="100.69971" />
      <rect
         style="opacity:1;fill:#ffffff;fill-opacity:1;stroke:none;stroke-width:2.539;stroke-dasharray:none;stroke-opacity:1"
         id="rect13"
         width="1.8121276"
         height="1.7091621"
         x="63.38414"
         y="110.19345" />
      <rect
         style="opacity:1;fill:#ffffff;fill-opacity:1;stroke:none;stroke-width:2.539;stroke-dasharray:none;stroke-opacity:1"
         id="rect14"
         width="1.8121276"
         height="1.7091621"
         x="69.033791"
         y="116.01783" />
    </g>
    <g
       id="layer5"
       inkscape:label="Cords">
      <path
         style="opacity:1;fill:none;fill-opacity:1;stroke:#ffffff;stroke-width:2.539;stroke-dasharray:none;stroke-opacity:1"
         d="m 61.74692,97.157397 -9.537976,-9.944574 c 0,0 -8.005624,-7.428245 -3.038671,-18.386292 2.770274,-6.111754 10.094366,-17.51052 10.094366,-17.51052 0,0 3.130029,-4.509713 4.406752,-12.89078"
         id="path16"
         sodipodi:nodetypes="ccscc" />
      <path
         style="opacity:1;fill:none;fill-opacity:1;stroke:#ffffff;stroke-width:2.539;stroke-dasharray:none;stroke-opacity:1"
         d="m 51.219509,86.129918 c 0.03595,-0.05393 -4.148976,-4.373478 -9.504212,-6.96879 -5.242309,-2.540584 -13.185516,-5.753262 -13.185516,-5.753262 0,0 -5.047848,-2.24416 -5.252559,-5.708664"
         id="path17"
         sodipodi:nodetypes="cscc" />
    </g>
    <g
       id="layer6"
       inkscape:label="Plugs">
      <path
         style="color:#000000;fill:#ffffff;stroke-miterlimit:10;-inkscape-stroke:none"
         d="m -15.185547,47.281003 0,20.596197 a 4.1462374,4.1462374 45 0 0 4.146237,4.146237 h 8.7231507 A 4.1462374,4.1462374 135 0 0 1.8300781,67.8772 l 0,-20.596197 a 4.1462374,4.1462374 45 0 0 -4.1462374,-4.146237 l -8.7231507,0 a 4.1462374,4.1462374 135 0 0 -4.146237,4.146237 z m 4.411551,-1.007566 h 8.1925234 a 1.2709257,1.2709257 45 0 1 1.2709257,1.270926 V 67.61384 a 1.2709257,1.2709257 135 0 1 -1.2709257,1.270926 H -10.773996 A 1.2709257,1.2709257 45 0 1 -12.044922,67.61384 V 47.544363 a 1.2709257,1.2709257 135 0 1 1.270926,-1.270926 z"
         id="rect17"
         transform="rotate(-24.293838)"
         sodipodi:nodetypes="cccccccccc"
         inkscape:path-effect="#path-effect20"
         inkscape:original-d="M -15.185547,43.134766 V 72.023437 H 1.8300781 V 43.134766 Z m 3.140625,3.138671 H -1.3105469 V 68.884766 H -12.044922 Z" />
      <path
         style="color:#000000;fill:#ffffff;stroke-miterlimit:10;-inkscape-stroke:none"
         d="m -15.185547,47.281003 0,20.596197 a 4.1462374,4.1462374 45 0 0 4.146237,4.146237 h 8.7231507 A 4.1462374,4.1462374 135 0 0 1.8300781,67.8772 l 0,-20.596197 a 4.1462374,4.1462374 45 0 0 -4.1462374,-4.146237 l -8.7231507,0 a 4.1462374,4.1462374 135 0 0 -4.146237,4.146237 z m 4.411551,-1.007566 h 8.1925234 a 1.2709257,1.2709257 45 0 1 1.2709257,1.270926 V 67.61384 a 1.2709257,1.2709257 135 0 1 -1.2709257,1.270926 H -10.773996 A 1.2709257,1.2709257 45 0 1 -12.044922,67.61384 V 47.544363 a 1.2709257,1.2709257 135 0 1 1.270926,-1.270926 z"
         id="path20"
         transform="rotate(11.12042,195.55513,416.63704)"
         sodipodi:nodetypes="cccccccccc"
         inkscape:path-effect="#path-effect22"
         inkscape:original-d="M -15.185547,43.134766 V 72.023437 H 1.8300781 V 43.134766 Z m 3.140625,3.138671 H -1.3105469 V 68.884766 H -12.044922 Z" />
    </g>
    <g
       id="layer7"
       inkscape:label="Features">
      <path
         style="color:#000000;fill:#ffffff;fill-opacity:1;stroke:none;stroke-miterlimit:10;stroke-opacity:1;-inkscape-stroke:none"
         d="m -15.184079,47.281003 0.003,8.562779 12.9340209,-0.02576 0.097368,-8.783176 a 4.0241613,4.0241613 44.779131 0 0 -4.0995439,-4.068059 l -4.7908397,0.09006 a 4.2234118,4.2234118 134.45142 0 0 -4.144037,4.224161 z m 4.409253,-1.053491 4.2603953,-0.154051 a 1.2179431,1.2179431 44.148674 0 1 1.2619286,1.224974 l -0.03978,6.190217 -6.861914,0.257955 0.09069,-6.20238 a 1.337138,1.337138 134.38344 0 1 1.288678,-1.316715 z"
         id="path22"
         transform="rotate(11.12042,247.0684,433.17154)"
         sodipodi:nodetypes="cccccccccc"
         inkscape:path-effect="#path-effect24"
         inkscape:original-d="m -15.185547,43.134766 0.0045,12.709016 12.9340209,-0.02576 0.1433289,-12.929159 z m 3.140625,3.138671 6.800587,-0.245901 -0.047947,7.461116 -6.861914,0.257955 z"
         inkscape:label="USB" />
      <rect
         style="opacity:1;fill:#ffffff;fill-opacity:1;stroke:none;stroke-width:3.139;stroke-linecap:butt;stroke-linejoin:miter;stroke-miterlimit:10;stroke-dasharray:none;stroke-opacity:1;paint-order:normal"
         id="rect24"
         width="8.75"
         height="10.3125"
         x="65.59375"
         y="2.75"
         inkscape:label="USB Fill" />
      <path
         style="color:#000000;fill:#ffffff;stroke-miterlimit:10;-inkscape-stroke:none"
         d="M 3.4989349,22.909769 A 3.1092764,3.1092764 110.25439 0 0 1.9990433,26.974444 L 9.5898438,44.710937 15.070313,42.175781 7.4794153,24.437375 A 2.9717044,2.9717044 20.995519 0 0 3.4989349,22.909769 Z"
         id="path26"
         inkscape:path-effect="#path-effect28"
         inkscape:original-d="M 6.2756174,21.624341 0.79514871,24.161451 9.5898438,44.710937 15.070313,42.175781 Z"
         transform="translate(0.0625,-0.25)"
         sodipodi:nodetypes="ccccc" />
    </g>
  </g>
</svg>
