<?xml version="1.0" encoding="UTF-8" standalone="no"?>
<!DOCTYPE svg PUBLIC "-//W3C//DTD SVG 1.1//EN"
 "http://www.w3.org/Graphics/SVG/1.1/DTD/svg11.dtd">
<!-- Generated by graphviz version 8.1.0 (20230707.0739)
 -->
<!-- Title: jaut::AudioProcessorRack Pages: 1 -->
<svg width="252pt" height="149pt"
 viewBox="0.00 0.00 251.50 149.00" xmlns="http://www.w3.org/2000/svg" xmlns:xlink="http://www.w3.org/1999/xlink">
<g id="graph0" class="graph" transform="scale(1 1) rotate(0) translate(4 145)">
<title>jaut::AudioProcessorRack</title>
<!-- Node1 -->
<g id="Node000001" class="node">
<title>Node1</title>
<g id="a_Node000001"><a xlink:title="The rack processor keeps an internal collection of AudioProcessor objects and plays them either in se...">
<polygon fill="#999999" stroke="#666666" points="186,-19.25 58.25,-19.25 58.25,0 186,0 186,-19.25"/>
<text text-anchor="middle" x="122.12" y="-5.75" font-family="Helvetica,sans-Serif" font-size="10.00">jaut::AudioProcessorRack</text>
</a>
</g>
</g>
<!-- Node2 -->
<g id="Node000002" class="node">
<title>Node2</title>
<g id="a_Node000002"><a xlink:href="../../dc/da3/structjaut_1_1ISerialisableAudioProcessor.html" target="_top" xlink:title="A simple interface class for sub&#45;audio processors for your own processor implementation.">
<polygon fill="white" stroke="#666666" points="114.25,-85.75 0,-85.75 0,-55.25 114.25,-55.25 114.25,-85.75"/>
<text text-anchor="start" x="8" y="-72.25" font-family="Helvetica,sans-Serif" font-size="10.00">jaut::ISerialisableAudio</text>
<text text-anchor="middle" x="57.13" y="-61" font-family="Helvetica,sans-Serif" font-size="10.00">Processor</text>
</a>
</g>
</g>
<!-- Node2&#45;&gt;Node1 -->
<g id="edge1_Node000001_Node000002" class="edge">
<title>Node2&#45;&gt;Node1</title>
<g id="a_edge1_Node000001_Node000002"><a xlink:title=" ">
<path fill="none" stroke="#63b8ff" d="M81.05,-47.83C91.77,-38.12 103.84,-27.19 112.1,-19.7"/>
<polygon fill="#63b8ff" stroke="#63b8ff" points="79.25,-44.64 74.19,-53.95 83.95,-49.83 79.25,-44.64"/>
</a>
</g>
</g>
<!-- Node3 -->
<g id="Node000003" class="node">
<title>Node3</title>
<g id="a_Node000003"><a xlink:href="../../d8/da9/classjaut_1_1MessageHandler.html" target="_top" xlink:title=" ">
<polygon fill="white" stroke="#666666" points="242,-85.75 132.25,-85.75 132.25,-55.25 242,-55.25 242,-85.75"/>
<text text-anchor="start" x="140.25" y="-72.25" font-family="Helvetica,sans-Serif" font-size="10.00">jaut::MessageHandler</text>
<text text-anchor="middle" x="187.12" y="-61" font-family="Helvetica,sans-Serif" font-size="10.00">&lt; 16 &gt;</text>
</a>
</g>
</g>
<!-- Node3&#45;&gt;Node1 -->
<g id="edge2_Node000001_Node000003" class="edge">
<title>Node3&#45;&gt;Node1</title>
<g id="a_edge2_Node000001_Node000003"><a xlink:title=" ">
<path fill="none" stroke="#63b8ff" d="M163.2,-47.83C152.48,-38.12 140.41,-27.19 132.15,-19.7"/>
<polygon fill="#63b8ff" stroke="#63b8ff" points="160.3,-49.83 170.06,-53.95 165,-44.64 160.3,-49.83"/>
</a>
</g>
</g>
<!-- Node4 -->
<g id="Node000004" class="node">
<title>Node4</title>
<g id="a_Node000004"><a xlink:href="../../d7/d49/structjaut_1_1IMessageHandler.html" target="_top" xlink:title=" ">
<polygon fill="white" stroke="#666666" points="243.5,-141 130.75,-141 130.75,-121.75 243.5,-121.75 243.5,-141"/>
<text text-anchor="middle" x="187.12" y="-127.5" font-family="Helvetica,sans-Serif" font-size="10.00">jaut::IMessageHandler</text>
</a>
</g>
</g>
<!-- Node4&#45;&gt;Node3 -->
<g id="edge3_Node000003_Node000004" class="edge">
<title>Node4&#45;&gt;Node3</title>
<g id="a_edge3_Node000003_Node000004"><a xlink:title=" ">
<path fill="none" stroke="#63b8ff" d="M187.12,-110.45C187.12,-102.45 187.12,-93.4 187.12,-86.03"/>
<polygon fill="#63b8ff" stroke="#63b8ff" points="183.63,-110.43 187.12,-120.43 190.63,-110.43 183.63,-110.43"/>
</a>
</g>
</g>
</g>
</svg>
