<?xml version="1.0" encoding="UTF-8" standalone="no"?>
<!DOCTYPE svg PUBLIC "-//W3C//DTD SVG 1.1//EN"
 "http://www.w3.org/Graphics/SVG/1.1/DTD/svg11.dtd">
<!-- Generated by graphviz version 8.1.0 (20230707.0739)
 -->
<!-- Title: jaut::ILogWorker Pages: 1 -->
<svg width="276pt" height="88pt"
 viewBox="0.00 0.00 275.50 87.50" xmlns="http://www.w3.org/2000/svg" xmlns:xlink="http://www.w3.org/1999/xlink">
<g id="graph0" class="graph" transform="scale(1 1) rotate(0) translate(4 83.5)">
<title>jaut::ILogWorker</title>
<!-- Node1 -->
<g id="Node000001" class="node">
<title>Node1</title>
<g id="a_Node000001"><a xlink:title="A worker is a separate layer to a jaut::BasicLogger, used to actually transport messages to the loggi...">
<polygon fill="#999999" stroke="#666666" points="86.5,-48.88 0,-48.88 0,-29.62 86.5,-29.62 86.5,-48.88"/>
<text text-anchor="middle" x="43.25" y="-35.38" font-family="Helvetica,sans-Serif" font-size="10.00">jaut::ILogWorker</text>
</a>
</g>
</g>
<!-- Node2 -->
<g id="Node000002" class="node">
<title>Node2</title>
<g id="a_Node000002"><a xlink:href="../../d5/d59/classjaut_1_1LogWorkerAsync.html" target="_top" xlink:title="The async log worker, which works asynchronously to the threads the logger is used by.">
<polygon fill="white" stroke="#666666" points="267.5,-79.5 122.5,-79.5 122.5,-49 267.5,-49 267.5,-79.5"/>
<text text-anchor="start" x="130.5" y="-66" font-family="Helvetica,sans-Serif" font-size="10.00">jaut::LogWorkerAsync</text>
<text text-anchor="middle" x="195" y="-54.75" font-family="Helvetica,sans-Serif" font-size="10.00">&lt; BufferSize, CriticalSection &gt;</text>
</a>
</g>
</g>
<!-- Node1&#45;&gt;Node2 -->
<g id="edge1_Node000001_Node000002" class="edge">
<title>Node1&#45;&gt;Node2</title>
<g id="a_edge1_Node000001_Node000002"><a xlink:title=" ">
<path fill="none" stroke="#63b8ff" d="M97.44,-48.13C105.47,-49.47 113.86,-50.87 122.2,-52.26"/>
<polygon fill="#63b8ff" stroke="#63b8ff" points="98.2,-44.54 87.76,-46.35 97.05,-51.45 98.2,-44.54"/>
</a>
</g>
</g>
<!-- Node3 -->
<g id="Node000003" class="node">
<title>Node3</title>
<g id="a_Node000003"><a xlink:href="../../db/d7a/classjaut_1_1LogWorkerSimple.html" target="_top" xlink:title="The simple log worker which works synchronously to the thread the logger is owned by.">
<polygon fill="white" stroke="#666666" points="267.5,-30.5 122.5,-30.5 122.5,0 267.5,0 267.5,-30.5"/>
<text text-anchor="start" x="130.5" y="-17" font-family="Helvetica,sans-Serif" font-size="10.00">jaut::LogWorkerSimple</text>
<text text-anchor="middle" x="195" y="-5.75" font-family="Helvetica,sans-Serif" font-size="10.00">&lt; BufferSize, CriticalSection &gt;</text>
</a>
</g>
</g>
<!-- Node1&#45;&gt;Node3 -->
<g id="edge2_Node000001_Node000003" class="edge">
<title>Node1&#45;&gt;Node3</title>
<g id="a_edge2_Node000001_Node000003"><a xlink:title=" ">
<path fill="none" stroke="#63b8ff" d="M97.44,-30.73C105.47,-29.44 113.86,-28.09 122.2,-26.76"/>
<polygon fill="#63b8ff" stroke="#63b8ff" points="97.08,-27.4 87.76,-32.44 98.19,-34.31 97.08,-27.4"/>
</a>
</g>
</g>
</g>
</svg>
