<?xml version="1.0" encoding="UTF-8" standalone="no"?>
<!DOCTYPE svg PUBLIC "-//W3C//DTD SVG 1.1//EN"
 "http://www.w3.org/Graphics/SVG/1.1/DTD/svg11.dtd">
<!-- Generated by graphviz version 8.1.0 (20230707.0739)
 -->
<!-- Title: jaut::ExtraComponent Pages: 1 -->
<svg width="323pt" height="83pt"
 viewBox="0.00 0.00 322.50 82.50" xmlns="http://www.w3.org/2000/svg" xmlns:xlink="http://www.w3.org/1999/xlink">
<g id="graph0" class="graph" transform="scale(1 1) rotate(0) translate(4 78.5)">
<title>jaut::ExtraComponent</title>
<!-- Node1 -->
<g id="Node000001" class="node">
<title>Node1</title>
<g id="a_Node000001"><a xlink:title="A juce::Component implementation that allows basic styling of a component, such as borders margin and...">
<polygon fill="#999999" stroke="#666666" points="217,-74.5 109.5,-74.5 109.5,-55.25 217,-55.25 217,-74.5"/>
<text text-anchor="middle" x="163.25" y="-61" font-family="Helvetica,sans-Serif" font-size="10.00">jaut::ExtraComponent</text>
</a>
</g>
</g>
<!-- Node2 -->
<g id="Node000002" class="node">
<title>Node2</title>
<g id="a_Node000002"><a xlink:href="../../d1/d16/classjaut_1_1ContentPane.html" target="_top" xlink:title="A simple component that contains another component and stretches it to a parent.">
<polygon fill="white" stroke="#666666" points="92.5,-19.25 0,-19.25 0,0 92.5,0 92.5,-19.25"/>
<text text-anchor="middle" x="46.25" y="-5.75" font-family="Helvetica,sans-Serif" font-size="10.00">jaut::ContentPane</text>
</a>
</g>
</g>
<!-- Node1&#45;&gt;Node2 -->
<g id="edge1_Node000001_Node000002" class="edge">
<title>Node1&#45;&gt;Node2</title>
<g id="a_edge1_Node000001_Node000002"><a xlink:title=" ">
<path fill="none" stroke="#63b8ff" d="M133.65,-50.4C112.53,-40.79 84.72,-28.13 66.19,-19.7"/>
<polygon fill="#63b8ff" stroke="#63b8ff" points="131.85,-53.88 142.4,-54.84 134.75,-47.51 131.85,-53.88"/>
</a>
</g>
</g>
<!-- Node3 -->
<g id="Node000003" class="node">
<title>Node3</title>
<g id="a_Node000003"><a xlink:href="../../d0/dea/classjaut_1_1MultiPagePanel.html" target="_top" xlink:title="An extremely customisable component that lets you add pages that will be controlled by a tab bar.">
<polygon fill="white" stroke="#666666" points="215.5,-19.25 111,-19.25 111,0 215.5,0 215.5,-19.25"/>
<text text-anchor="middle" x="163.25" y="-5.75" font-family="Helvetica,sans-Serif" font-size="10.00">jaut::MultiPagePanel</text>
</a>
</g>
</g>
<!-- Node1&#45;&gt;Node3 -->
<g id="edge2_Node000001_Node000003" class="edge">
<title>Node1&#45;&gt;Node3</title>
<g id="a_edge2_Node000001_Node000003"><a xlink:title=" ">
<path fill="none" stroke="#63b8ff" d="M163.25,-44.21C163.25,-35.77 163.25,-26.33 163.25,-19.61"/>
<polygon fill="#63b8ff" stroke="#63b8ff" points="159.75,-44.08 163.25,-54.08 166.75,-44.08 159.75,-44.08"/>
</a>
</g>
</g>
<!-- Node4 -->
<g id="Node000004" class="node">
<title>Node4</title>
<g id="a_Node000004"><a xlink:href="../../d5/dd6/classjaut_1_1SplitPanel.html" target="_top" xlink:title="A component that contains two components that can be resized with a separator in&#45;between.">
<polygon fill="white" stroke="#666666" points="314.5,-19.25 234,-19.25 234,0 314.5,0 314.5,-19.25"/>
<text text-anchor="middle" x="274.25" y="-5.75" font-family="Helvetica,sans-Serif" font-size="10.00">jaut::SplitPanel</text>
</a>
</g>
</g>
<!-- Node1&#45;&gt;Node4 -->
<g id="edge3_Node000001_Node000004" class="edge">
<title>Node1&#45;&gt;Node4</title>
<g id="a_edge3_Node000001_Node000004"><a xlink:title=" ">
<path fill="none" stroke="#63b8ff" d="M191.88,-50.14C211.84,-40.56 237.92,-28.06 255.33,-19.7"/>
<polygon fill="#63b8ff" stroke="#63b8ff" points="190.58,-47.36 183.08,-54.84 193.61,-53.67 190.58,-47.36"/>
</a>
</g>
</g>
</g>
</svg>
