<?xml version="1.0" encoding="UTF-8" standalone="no"?>
<!DOCTYPE svg PUBLIC "-//W3C//DTD SVG 1.1//EN"
 "http://www.w3.org/Graphics/SVG/1.1/DTD/svg11.dtd">
<!-- Generated by graphviz version 9.0.0 (20230911.1827)
 -->
<!-- Title: jaut::LookAndFeel Pages: 1 -->
<svg width="262pt" height="186pt"
 viewBox="0.00 0.00 262.00 185.50" xmlns="http://www.w3.org/2000/svg" xmlns:xlink="http://www.w3.org/1999/xlink">
<g id="graph0" class="graph" transform="scale(1 1) rotate(0) translate(4 181.5)">
<title>jaut::LookAndFeel</title>
<!-- Node1 -->
<g id="Node000001" class="node">
<title>Node1</title>
<g id="a_Node000001"><a xlink:title=" ">
<polygon fill="#999999" stroke="#666666" points="254,-97.88 160,-97.88 160,-78.62 254,-78.62 254,-97.88"/>
<text text-anchor="middle" x="207" y="-84.38" font-family="Helvetica,sans-Serif" font-size="10.00">jaut::LookAndFeel</text>
</a>
</g>
</g>
<!-- Node2 -->
<g id="Node000002" class="node">
<title>Node2</title>
<g id="a_Node000002"><a xlink:href="structjaut_1_1ExtraComponent_1_1LookAndFeelMethods.html" target="_top" xlink:title=" ">
<polygon fill="white" stroke="#666666" points="119.88,-177.5 4.12,-177.5 4.12,-147 119.88,-147 119.88,-177.5"/>
<text text-anchor="start" x="12.12" y="-164" font-family="Helvetica,sans-Serif" font-size="10.00">jaut::ExtraComponent</text>
<text text-anchor="middle" x="62" y="-152.75" font-family="Helvetica,sans-Serif" font-size="10.00">::LookAndFeelMethods</text>
</a>
</g>
</g>
<!-- Node2&#45;&gt;Node1 -->
<g id="edge1_Node000001_Node000002" class="edge">
<title>Node2&#45;&gt;Node1</title>
<g id="a_edge1_Node000001_Node000002"><a xlink:title=" ">
<path fill="none" stroke="#63b8ff" d="M114.02,-142.01C117.42,-140.46 120.78,-138.86 124,-137.25 148.03,-125.23 174.48,-108.8 190.67,-98.36"/>
<polygon fill="#63b8ff" stroke="#63b8ff" points="112.86,-138.7 105.12,-145.94 115.69,-145.1 112.86,-138.7"/>
</a>
</g>
</g>
<!-- Node3 -->
<g id="Node000003" class="node">
<title>Node3</title>
<g id="a_Node000003"><a xlink:href="structjaut_1_1ContentPane_1_1LookAndFeelMethods.html" target="_top" xlink:title=" ">
<polygon fill="white" stroke="#666666" points="117.62,-128.5 6.38,-128.5 6.38,-98 117.62,-98 117.62,-128.5"/>
<text text-anchor="start" x="14.38" y="-115" font-family="Helvetica,sans-Serif" font-size="10.00">jaut::ContentPane::</text>
<text text-anchor="middle" x="62" y="-103.75" font-family="Helvetica,sans-Serif" font-size="10.00">LookAndFeelMethods</text>
</a>
</g>
</g>
<!-- Node3&#45;&gt;Node1 -->
<g id="edge2_Node000001_Node000003" class="edge">
<title>Node3&#45;&gt;Node1</title>
<g id="a_edge2_Node000001_Node000003"><a xlink:title=" ">
<path fill="none" stroke="#63b8ff" d="M129.07,-101.7C139.48,-99.88 150.04,-98.03 159.87,-96.32"/>
<polygon fill="#63b8ff" stroke="#63b8ff" points="128.62,-98.23 119.37,-103.4 129.82,-105.12 128.62,-98.23"/>
</a>
</g>
</g>
<!-- Node4 -->
<g id="Node000004" class="node">
<title>Node4</title>
<g id="a_Node000004"><a xlink:href="structjaut_1_1SplitPanel_1_1LookAndFeelMethods.html" target="_top" xlink:title=" ">
<polygon fill="white" stroke="#666666" points="124,-79.5 0,-79.5 0,-49 124,-49 124,-79.5"/>
<text text-anchor="start" x="8" y="-66" font-family="Helvetica,sans-Serif" font-size="10.00">jaut::SplitPanel::LookAnd</text>
<text text-anchor="middle" x="62" y="-54.75" font-family="Helvetica,sans-Serif" font-size="10.00">FeelMethods</text>
</a>
</g>
</g>
<!-- Node4&#45;&gt;Node1 -->
<g id="edge3_Node000001_Node000004" class="edge">
<title>Node4&#45;&gt;Node1</title>
<g id="a_edge3_Node000001_Node000004"><a xlink:title=" ">
<path fill="none" stroke="#63b8ff" d="M135.61,-76.44C143.8,-77.81 151.97,-79.18 159.7,-80.48"/>
<polygon fill="#63b8ff" stroke="#63b8ff" points="136.41,-73.02 125.97,-74.82 135.25,-79.92 136.41,-73.02"/>
</a>
</g>
</g>
<!-- Node5 -->
<g id="Node000005" class="node">
<title>Node5</title>
<g id="a_Node000005"><a xlink:href="structjaut_1_1MultiPagePanel_1_1LookAndFeelMethods.html" target="_top" xlink:title=" ">
<polygon fill="white" stroke="#666666" points="119.88,-30.5 4.12,-30.5 4.12,0 119.88,0 119.88,-30.5"/>
<text text-anchor="start" x="12.12" y="-17" font-family="Helvetica,sans-Serif" font-size="10.00">jaut::MultiPagePanel</text>
<text text-anchor="middle" x="62" y="-5.75" font-family="Helvetica,sans-Serif" font-size="10.00">::LookAndFeelMethods</text>
</a>
</g>
</g>
<!-- Node5&#45;&gt;Node1 -->
<g id="edge4_Node000001_Node000005" class="edge">
<title>Node5&#45;&gt;Node1</title>
<g id="a_edge4_Node000001_Node000005"><a xlink:title=" ">
<path fill="none" stroke="#63b8ff" d="M113.84,-35.45C117.3,-37.02 120.72,-38.63 124,-40.25 147.81,-52.02 174.1,-67.97 190.34,-78.19"/>
<polygon fill="#63b8ff" stroke="#63b8ff" points="115.34,-32.28 104.77,-31.47 112.53,-38.69 115.34,-32.28"/>
</a>
</g>
</g>
</g>
</svg>
