<?xml version="1.0" encoding="UTF-8" standalone="no"?>
<!DOCTYPE svg PUBLIC "-//W3C//DTD SVG 1.1//EN"
 "http://www.w3.org/Graphics/SVG/1.1/DTD/svg11.dtd">
<!-- Generated by graphviz version 9.0.0 (20230911.1827)
 -->
<!-- Title: jaut::ExtraComponent Pages: 1 -->
<svg width="323pt" height="83pt"
 viewBox="0.00 0.00 322.50 82.50" xmlns="http://www.w3.org/2000/svg" xmlns:xlink="http://www.w3.org/1999/xlink">
<g id="graph0" class="graph" transform="scale(1 1) rotate(0) translate(4 78.5)">
<title>jaut::ExtraComponent</title>
<!-- Node1 -->
<g id="Node000001" class="node">
<title>Node1</title>
<g id="a_Node000001"><a xlink:title="A juce::Component implementation that allows basic styling of a component, such as borders margin and...">
<polygon fill="#999999" stroke="#666666" points="217,-74.5 109.5,-74.5 109.5,-55.25 217,-55.25 217,-74.5"/>
<text text-anchor="middle" x="163.25" y="-61" font-family="Helvetica,sans-Serif" font-size="10.00">jaut::ExtraComponent</text>
</a>
</g>
</g>
<!-- Node2 -->
<g id="Node000002" class="node">
<title>Node2</title>
<g id="a_Node000002"><a xlink:href="classjaut_1_1ContentPane.html" target="_top" xlink:title="A simple component that contains another component and stretches it to a parent.">
<polygon fill="white" stroke="#666666" points="92.5,-19.25 0,-19.25 0,0 92.5,0 92.5,-19.25"/>
<text text-anchor="middle" x="46.25" y="-5.75" font-family="Helvetica,sans-Serif" font-size="10.00">jaut::ContentPane</text>
</a>
</g>
</g>
<!-- Node1&#45;&gt;Node2 -->
<g id="edge1_Node000001_Node000002" class="edge">
<title>Node1&#45;&gt;Node2</title>
<g id="a_edge1_Node000001_Node000002"><a xlink:title=" ">
<path fill="none" stroke="#63b8ff" d="M133.07,-50.14C112.03,-40.56 84.55,-28.06 66.19,-19.7"/>
<polygon fill="#63b8ff" stroke="#63b8ff" points="131.47,-53.26 142.02,-54.21 134.37,-46.89 131.47,-53.26"/>
</a>
</g>
</g>
<!-- Node3 -->
<g id="Node000003" class="node">
<title>Node3</title>
<g id="a_Node000003"><a xlink:href="classjaut_1_1MultiPagePanel.html" target="_top" xlink:title="An extremely customisable component that lets you add pages that will be controlled by a tab bar.">
<polygon fill="white" stroke="#666666" points="215.5,-19.25 111,-19.25 111,0 215.5,0 215.5,-19.25"/>
<text text-anchor="middle" x="163.25" y="-5.75" font-family="Helvetica,sans-Serif" font-size="10.00">jaut::MultiPagePanel</text>
</a>
</g>
</g>
<!-- Node1&#45;&gt;Node3 -->
<g id="edge2_Node000001_Node000003" class="edge">
<title>Node1&#45;&gt;Node3</title>
<g id="a_edge2_Node000001_Node000003"><a xlink:title=" ">
<path fill="none" stroke="#63b8ff" d="M163.25,-43.63C163.25,-35.34 163.25,-26.17 163.25,-19.61"/>
<polygon fill="#63b8ff" stroke="#63b8ff" points="159.75,-43.57 163.25,-53.57 166.75,-43.57 159.75,-43.57"/>
</a>
</g>
</g>
<!-- Node4 -->
<g id="Node000004" class="node">
<title>Node4</title>
<g id="a_Node000004"><a xlink:href="classjaut_1_1SplitPanel.html" target="_top" xlink:title="A component that contains two components that can be resized with a separator in&#45;between.">
<polygon fill="white" stroke="#666666" points="314.5,-19.25 234,-19.25 234,0 314.5,0 314.5,-19.25"/>
<text text-anchor="middle" x="274.25" y="-5.75" font-family="Helvetica,sans-Serif" font-size="10.00">jaut::SplitPanel</text>
</a>
</g>
</g>
<!-- Node1&#45;&gt;Node4 -->
<g id="edge3_Node000001_Node000004" class="edge">
<title>Node1&#45;&gt;Node4</title>
<g id="a_edge3_Node000001_Node000004"><a xlink:title=" ">
<path fill="none" stroke="#63b8ff" d="M192.43,-49.87C212.32,-40.33 238.08,-27.98 255.33,-19.7"/>
<polygon fill="#63b8ff" stroke="#63b8ff" points="190.95,-46.71 183.44,-54.19 193.97,-53.02 190.95,-46.71"/>
</a>
</g>
</g>
</g>
</svg>
