<?xml version="1.0" encoding="UTF-8" standalone="no"?>
<!DOCTYPE svg PUBLIC "-//W3C//DTD SVG 1.1//EN"
 "http://www.w3.org/Graphics/SVG/1.1/DTD/svg11.dtd">
<!-- Generated by graphviz version 9.0.0 (20230911.1827)
 -->
<!-- Title: jaut::AudioProcessorRack Pages: 1 -->
<svg width="252pt" height="149pt"
 viewBox="0.00 0.00 251.50 149.00" xmlns="http://www.w3.org/2000/svg" xmlns:xlink="http://www.w3.org/1999/xlink">
<g id="graph0" class="graph" transform="scale(1 1) rotate(0) translate(4 145)">
<title>jaut::AudioProcessorRack</title>
<!-- Node1 -->
<g id="Node000001" class="node">
<title>Node1</title>
<g id="a_Node000001"><a xlink:title="The rack processor keeps an internal collection of AudioProcessor objects and plays them either in se...">
<polygon fill="#999999" stroke="#666666" points="186,-19.25 58.25,-19.25 58.25,0 186,0 186,-19.25"/>
<text text-anchor="middle" x="122.12" y="-5.75" font-family="Helvetica,sans-Serif" font-size="10.00">jaut::AudioProcessorRack</text>
</a>
</g>
</g>
<!-- Node2 -->
<g id="Node000002" class="node">
<title>Node2</title>
<g id="a_Node000002"><a xlink:href="structjaut_1_1ISerialisableAudioProcessor.html" target="_top" xlink:title="A simple interface class for sub&#45;audio processors for your own processor implementation.">
<polygon fill="white" stroke="#666666" points="114.25,-85.75 0,-85.75 0,-55.25 114.25,-55.25 114.25,-85.75"/>
<text text-anchor="start" x="8" y="-72.25" font-family="Helvetica,sans-Serif" font-size="10.00">jaut::ISerialisableAudio</text>
<text text-anchor="middle" x="57.13" y="-61" font-family="Helvetica,sans-Serif" font-size="10.00">Processor</text>
</a>
</g>
</g>
<!-- Node2&#45;&gt;Node1 -->
<g id="edge1_Node000001_Node000002" class="edge">
<title>Node2&#45;&gt;Node1</title>
<g id="a_edge1_Node000001_Node000002"><a xlink:title=" ">
<path fill="none" stroke="#63b8ff" d="M81.68,-47.26C92.24,-37.69 104,-27.04 112.1,-19.7"/>
<polygon fill="#63b8ff" stroke="#63b8ff" points="79.38,-44.62 74.31,-53.93 84.08,-49.81 79.38,-44.62"/>
</a>
</g>
</g>
<!-- Node3 -->
<g id="Node000003" class="node">
<title>Node3</title>
<g id="a_Node000003"><a xlink:href="classjaut_1_1MessageHandler.html" target="_top" xlink:title=" ">
<polygon fill="white" stroke="#666666" points="242,-85.75 132.25,-85.75 132.25,-55.25 242,-55.25 242,-85.75"/>
<text text-anchor="start" x="140.25" y="-72.25" font-family="Helvetica,sans-Serif" font-size="10.00">jaut::MessageHandler</text>
<text text-anchor="middle" x="187.12" y="-61" font-family="Helvetica,sans-Serif" font-size="10.00">&lt; 16 &gt;</text>
</a>
</g>
</g>
<!-- Node3&#45;&gt;Node1 -->
<g id="edge2_Node000001_Node000003" class="edge">
<title>Node3&#45;&gt;Node1</title>
<g id="a_edge2_Node000001_Node000003"><a xlink:title=" ">
<path fill="none" stroke="#63b8ff" d="M162.57,-47.26C152.01,-37.69 140.25,-27.04 132.15,-19.7"/>
<polygon fill="#63b8ff" stroke="#63b8ff" points="160.17,-49.81 169.94,-53.93 164.87,-44.62 160.17,-49.81"/>
</a>
</g>
</g>
<!-- Node4 -->
<g id="Node000004" class="node">
<title>Node4</title>
<g id="a_Node000004"><a xlink:href="structjaut_1_1IMessageHandler.html" target="_top" xlink:title=" ">
<polygon fill="white" stroke="#666666" points="243.5,-141 130.75,-141 130.75,-121.75 243.5,-121.75 243.5,-141"/>
<text text-anchor="middle" x="187.12" y="-127.5" font-family="Helvetica,sans-Serif" font-size="10.00">jaut::IMessageHandler</text>
</a>
</g>
</g>
<!-- Node4&#45;&gt;Node3 -->
<g id="edge3_Node000003_Node000004" class="edge">
<title>Node4&#45;&gt;Node3</title>
<g id="a_edge3_Node000003_Node000004"><a xlink:title=" ">
<path fill="none" stroke="#63b8ff" d="M187.12,-110.17C187.12,-102.24 187.12,-93.31 187.12,-86.03"/>
<polygon fill="#63b8ff" stroke="#63b8ff" points="183.63,-109.92 187.13,-119.92 190.63,-109.92 183.63,-109.92"/>
</a>
</g>
</g>
</g>
</svg>
