<?xml version="1.0" encoding="UTF-8" standalone="no"?>
<!DOCTYPE svg PUBLIC "-//W3C//DTD SVG 1.1//EN"
 "http://www.w3.org/Graphics/SVG/1.1/DTD/svg11.dtd">
<!-- Generated by graphviz version 9.0.0 (20230911.1827)
 -->
<!-- Title: jaut::MultiPagePanel::InitStyle Pages: 1 -->
<svg width="238pt" height="105pt"
 viewBox="0.00 0.00 238.00 105.00" xmlns="http://www.w3.org/2000/svg" xmlns:xlink="http://www.w3.org/1999/xlink">
<g id="graph0" class="graph" transform="scale(1 1) rotate(0) translate(4 101)">
<title>jaut::MultiPagePanel::InitStyle</title>
<!-- Node1 -->
<g id="Node000001" class="node">
<title>Node1</title>
<g id="a_Node000001"><a xlink:title="The style options for constructing this panel.">
<polygon fill="#999999" stroke="#666666" points="166.5,-30.5 62,-30.5 62,0 166.5,0 166.5,-30.5"/>
<text text-anchor="start" x="70" y="-17" font-family="Helvetica,sans-Serif" font-size="10.00">jaut::MultiPagePanel</text>
<text text-anchor="middle" x="114.25" y="-5.75" font-family="Helvetica,sans-Serif" font-size="10.00">::InitStyle</text>
</a>
</g>
</g>
<!-- Node2 -->
<g id="Node000002" class="node">
<title>Node2</title>
<g id="a_Node000002"><a xlink:href="structjaut_1_1MultiPagePanel_1_1Style.html" target="_top" xlink:title=" ">
<polygon fill="white" stroke="#666666" points="104.5,-97 0,-97 0,-66.5 104.5,-66.5 104.5,-97"/>
<text text-anchor="start" x="8" y="-83.5" font-family="Helvetica,sans-Serif" font-size="10.00">jaut::MultiPagePanel</text>
<text text-anchor="middle" x="52.25" y="-72.25" font-family="Helvetica,sans-Serif" font-size="10.00">::Style</text>
</a>
</g>
</g>
<!-- Node2&#45;&gt;Node1 -->
<g id="edge1_Node000001_Node000002" class="edge">
<title>Node2&#45;&gt;Node1</title>
<g id="a_edge1_Node000001_Node000002"><a xlink:title=" ">
<path fill="none" stroke="#63b8ff" d="M74.21,-57.91C82.87,-48.9 92.56,-38.82 100.24,-30.83"/>
<polygon fill="#63b8ff" stroke="#63b8ff" points="71.77,-55.39 67.37,-65.02 76.82,-60.24 71.77,-55.39"/>
</a>
</g>
</g>
<!-- Node3 -->
<g id="Node000003" class="node">
<title>Node3</title>
<g id="a_Node000003"><a xlink:href="structjaut_1_1ExtraComponent_1_1ContainerStyle.html" target="_top" xlink:title="The container style options for any component inheriting from this component.">
<polygon fill="white" stroke="#666666" points="230,-97 122.5,-97 122.5,-66.5 230,-66.5 230,-97"/>
<text text-anchor="start" x="130.5" y="-83.5" font-family="Helvetica,sans-Serif" font-size="10.00">jaut::ExtraComponent</text>
<text text-anchor="middle" x="176.25" y="-72.25" font-family="Helvetica,sans-Serif" font-size="10.00">::ContainerStyle</text>
</a>
</g>
</g>
<!-- Node3&#45;&gt;Node1 -->
<g id="edge2_Node000001_Node000003" class="edge">
<title>Node3&#45;&gt;Node1</title>
<g id="a_edge2_Node000001_Node000003"><a xlink:title=" ">
<path fill="none" stroke="#63b8ff" d="M154.29,-57.91C145.63,-48.9 135.94,-38.82 128.26,-30.83"/>
<polygon fill="#63b8ff" stroke="#63b8ff" points="151.68,-60.24 161.13,-65.02 156.73,-55.39 151.68,-60.24"/>
</a>
</g>
</g>
</g>
</svg>
