<?xml version="1.0" encoding="UTF-8" standalone="no"?>
<!DOCTYPE svg PUBLIC "-//W3C//DTD SVG 1.1//EN"
 "http://www.w3.org/Graphics/SVG/1.1/DTD/svg11.dtd">
<!-- Generated by graphviz version 9.0.0 (20230911.1827)
 -->
<!-- Title: jaut::ISerialisableAudioProcessor Pages: 1 -->
<svg width="316pt" height="125pt"
 viewBox="0.00 0.00 316.00 124.88" xmlns="http://www.w3.org/2000/svg" xmlns:xlink="http://www.w3.org/1999/xlink">
<g id="graph0" class="graph" transform="scale(1 1) rotate(0) translate(4 120.88)">
<title>jaut::ISerialisableAudioProcessor</title>
<!-- Node1 -->
<g id="Node000001" class="node">
<title>Node1</title>
<g id="a_Node000001"><a xlink:title="A simple interface class for sub&#45;audio processors for your own processor implementation.">
<polygon fill="#999999" stroke="#666666" points="114.25,-79.5 0,-79.5 0,-49 114.25,-49 114.25,-79.5"/>
<text text-anchor="start" x="8" y="-66" font-family="Helvetica,sans-Serif" font-size="10.00">jaut::ISerialisableAudio</text>
<text text-anchor="middle" x="57.12" y="-54.75" font-family="Helvetica,sans-Serif" font-size="10.00">Processor</text>
</a>
</g>
</g>
<!-- Node2 -->
<g id="Node000002" class="node">
<title>Node2</title>
<g id="a_Node000002"><a xlink:href="classjaut_1_1AudioProcessorRack.html" target="_top" xlink:title="The rack processor keeps an internal collection of AudioProcessor objects and plays them either in se...">
<polygon fill="white" stroke="#666666" points="293,-116.88 165.25,-116.88 165.25,-97.62 293,-97.62 293,-116.88"/>
<text text-anchor="middle" x="229.12" y="-103.38" font-family="Helvetica,sans-Serif" font-size="10.00">jaut::AudioProcessorRack</text>
</a>
</g>
</g>
<!-- Node1&#45;&gt;Node2 -->
<g id="edge1_Node000001_Node000002" class="edge">
<title>Node1&#45;&gt;Node2</title>
<g id="a_edge1_Node000001_Node000002"><a xlink:title=" ">
<path fill="none" stroke="#63b8ff" d="M125.48,-81.93C133.82,-84.08 142.23,-86.23 150.25,-88.25 161.99,-91.21 174.74,-94.35 186.47,-97.21"/>
<polygon fill="#63b8ff" stroke="#63b8ff" points="126.63,-78.61 116.07,-79.49 124.87,-85.38 126.63,-78.61"/>
</a>
</g>
</g>
<!-- Node3 -->
<g id="Node000003" class="node">
<title>Node3</title>
<g id="a_Node000003"><a xlink:href="classjaut_1_1AudioProcessorSet.html" target="_top" xlink:title="The set processor allows to define a static set of processors that will be processed at processing ti...">
<polygon fill="white" stroke="#666666" points="289.25,-79.5 169,-79.5 169,-49 289.25,-49 289.25,-79.5"/>
<text text-anchor="start" x="177" y="-66" font-family="Helvetica,sans-Serif" font-size="10.00">jaut::AudioProcessorSet</text>
<text text-anchor="middle" x="229.12" y="-54.75" font-family="Helvetica,sans-Serif" font-size="10.00">&lt; Processors &gt;</text>
</a>
</g>
</g>
<!-- Node1&#45;&gt;Node3 -->
<g id="edge2_Node000001_Node000003" class="edge">
<title>Node1&#45;&gt;Node3</title>
<g id="a_edge2_Node000001_Node000003"><a xlink:title=" ">
<path fill="none" stroke="#63b8ff" d="M125.88,-64.25C139.99,-64.25 154.77,-64.25 168.56,-64.25"/>
<polygon fill="#63b8ff" stroke="#63b8ff" points="126.25,-60.75 116.25,-64.25 126.25,-67.75 126.25,-60.75"/>
</a>
</g>
</g>
<!-- Node4 -->
<g id="Node000004" class="node">
<title>Node4</title>
<g id="a_Node000004"><a xlink:href="classjaut_1_1SerialisableJuceProcessorProxy.html" target="_top" xlink:title="The SerialisableJuceProcessorProxy is an ISerializableAudioProcessor wrapper that wraps any other ins...">
<polygon fill="white" stroke="#666666" points="308,-30.5 150.25,-30.5 150.25,0 308,0 308,-30.5"/>
<text text-anchor="start" x="158.25" y="-17" font-family="Helvetica,sans-Serif" font-size="10.00">jaut::SerialisableJuceProcessor</text>
<text text-anchor="middle" x="229.12" y="-5.75" font-family="Helvetica,sans-Serif" font-size="10.00">Proxy&lt; InternalAudioProcessor &gt;</text>
</a>
</g>
</g>
<!-- Node1&#45;&gt;Node4 -->
<g id="edge3_Node000001_Node000004" class="edge">
<title>Node1&#45;&gt;Node4</title>
<g id="a_edge3_Node000001_Node000004"><a xlink:title=" ">
<path fill="none" stroke="#63b8ff" d="M123.12,-45.52C139.75,-40.72 157.46,-35.62 173.51,-30.99"/>
<polygon fill="#63b8ff" stroke="#63b8ff" points="122.48,-42.06 113.84,-48.19 124.41,-48.79 122.48,-42.06"/>
</a>
</g>
</g>
</g>
</svg>
