<?xml version="1.0" encoding="UTF-8" standalone="no"?>
<!DOCTYPE svg PUBLIC "-//W3C//DTD SVG 1.1//EN"
 "http://www.w3.org/Graphics/SVG/1.1/DTD/svg11.dtd">
<!-- Generated by graphviz version 9.0.0 (20230911.1827)
 -->
<!-- Title: jaut::IMessageHandler Pages: 1 -->
<svg width="293pt" height="149pt"
 viewBox="0.00 0.00 293.25 149.00" xmlns="http://www.w3.org/2000/svg" xmlns:xlink="http://www.w3.org/1999/xlink">
<g id="graph0" class="graph" transform="scale(1 1) rotate(0) translate(4 145)">
<title>jaut::IMessageHandler</title>
<!-- Node1 -->
<g id="Node000001" class="node">
<title>Node1</title>
<g id="a_Node000001"><a xlink:title=" ">
<polygon fill="#999999" stroke="#666666" points="193.25,-141 80.5,-141 80.5,-121.75 193.25,-121.75 193.25,-141"/>
<text text-anchor="middle" x="136.88" y="-127.5" font-family="Helvetica,sans-Serif" font-size="10.00">jaut::IMessageHandler</text>
</a>
</g>
</g>
<!-- Node2 -->
<g id="Node000002" class="node">
<title>Node2</title>
<g id="a_Node000002"><a xlink:href="classjaut_1_1MessageHandler.html" target="_top" xlink:title=" ">
<polygon fill="white" stroke="#666666" points="118.75,-85.75 9,-85.75 9,-55.25 118.75,-55.25 118.75,-85.75"/>
<text text-anchor="start" x="17" y="-72.25" font-family="Helvetica,sans-Serif" font-size="10.00">jaut::MessageHandler</text>
<text text-anchor="middle" x="63.88" y="-61" font-family="Helvetica,sans-Serif" font-size="10.00">&lt; 16 &gt;</text>
</a>
</g>
</g>
<!-- Node1&#45;&gt;Node2 -->
<g id="edge1_Node000001_Node000002" class="edge">
<title>Node1&#45;&gt;Node2</title>
<g id="a_edge1_Node000001_Node000002"><a xlink:title=" ">
<path fill="none" stroke="#63b8ff" d="M116.95,-114.31C106,-105.48 92.53,-94.61 81.89,-86.03"/>
<polygon fill="#63b8ff" stroke="#63b8ff" points="114.63,-116.93 124.61,-120.48 119.02,-111.48 114.63,-116.93"/>
</a>
</g>
</g>
<!-- Node4 -->
<g id="Node000004" class="node">
<title>Node4</title>
<g id="a_Node000004"><a xlink:href="classjaut_1_1MessageHandler.html" target="_top" xlink:title="A simple implementation of an thread synchronisation manager.">
<polygon fill="white" stroke="#666666" points="285.25,-85.75 136.5,-85.75 136.5,-55.25 285.25,-55.25 285.25,-85.75"/>
<text text-anchor="start" x="144.5" y="-72.25" font-family="Helvetica,sans-Serif" font-size="10.00">jaut::MessageHandler</text>
<text text-anchor="middle" x="210.88" y="-61" font-family="Helvetica,sans-Serif" font-size="10.00">&lt; BufferSize, BackBufferSize &gt;</text>
</a>
</g>
</g>
<!-- Node1&#45;&gt;Node4 -->
<g id="edge3_Node000001_Node000004" class="edge">
<title>Node1&#45;&gt;Node4</title>
<g id="a_edge3_Node000001_Node000004"><a xlink:title=" ">
<path fill="none" stroke="#63b8ff" d="M157.07,-114.31C168.17,-105.48 181.83,-94.61 192.61,-86.03"/>
<polygon fill="#63b8ff" stroke="#63b8ff" points="154.94,-111.53 149.3,-120.49 159.3,-117 154.94,-111.53"/>
</a>
</g>
</g>
<!-- Node3 -->
<g id="Node000003" class="node">
<title>Node3</title>
<g id="a_Node000003"><a xlink:href="classjaut_1_1AudioProcessorRack.html" target="_top" xlink:title="The rack processor keeps an internal collection of AudioProcessor objects and plays them either in se...">
<polygon fill="white" stroke="#666666" points="127.75,-19.25 0,-19.25 0,0 127.75,0 127.75,-19.25"/>
<text text-anchor="middle" x="63.88" y="-5.75" font-family="Helvetica,sans-Serif" font-size="10.00">jaut::AudioProcessorRack</text>
</a>
</g>
</g>
<!-- Node2&#45;&gt;Node3 -->
<g id="edge2_Node000002_Node000003" class="edge">
<title>Node2&#45;&gt;Node3</title>
<g id="a_edge2_Node000002_Node000003"><a xlink:title=" ">
<path fill="none" stroke="#63b8ff" d="M63.88,-43.48C63.88,-34.98 63.88,-26.09 63.88,-19.7"/>
<polygon fill="#63b8ff" stroke="#63b8ff" points="60.38,-43.43 63.88,-53.43 67.38,-43.43 60.38,-43.43"/>
</a>
</g>
</g>
</g>
</svg>
