<?xml version="1.0" encoding="UTF-8" standalone="no"?>
<!DOCTYPE svg PUBLIC "-//W3C//DTD SVG 1.1//EN"
 "http://www.w3.org/Graphics/SVG/1.1/DTD/svg11.dtd">
<!-- Generated by graphviz version 9.0.0 (20230911.1827)
 -->
<!-- Title: jaut::ExtraComponent::ContainerStyle Pages: 1 -->
<svg width="250pt" height="105pt"
 viewBox="0.00 0.00 250.38 105.00" xmlns="http://www.w3.org/2000/svg" xmlns:xlink="http://www.w3.org/1999/xlink">
<g id="graph0" class="graph" transform="scale(1 1) rotate(0) translate(4 101)">
<title>jaut::ExtraComponent::ContainerStyle</title>
<!-- Node1 -->
<g id="Node000001" class="node">
<title>Node1</title>
<g id="a_Node000001"><a xlink:title="The container style options for any component inheriting from this component.">
<polygon fill="#999999" stroke="#666666" points="171,-97 63.5,-97 63.5,-66.5 171,-66.5 171,-97"/>
<text text-anchor="start" x="71.5" y="-83.5" font-family="Helvetica,sans-Serif" font-size="10.00">jaut::ExtraComponent</text>
<text text-anchor="middle" x="117.25" y="-72.25" font-family="Helvetica,sans-Serif" font-size="10.00">::ContainerStyle</text>
</a>
</g>
</g>
<!-- Node2 -->
<g id="Node000002" class="node">
<title>Node2</title>
<g id="a_Node000002"><a xlink:href="structjaut_1_1MultiPagePanel_1_1InitStyle.html" target="_top" xlink:title="The style options for constructing this panel.">
<polygon fill="white" stroke="#666666" points="104.5,-30.5 0,-30.5 0,0 104.5,0 104.5,-30.5"/>
<text text-anchor="start" x="8" y="-17" font-family="Helvetica,sans-Serif" font-size="10.00">jaut::MultiPagePanel</text>
<text text-anchor="middle" x="52.25" y="-5.75" font-family="Helvetica,sans-Serif" font-size="10.00">::InitStyle</text>
</a>
</g>
</g>
<!-- Node1&#45;&gt;Node2 -->
<g id="edge1_Node000001_Node000002" class="edge">
<title>Node1&#45;&gt;Node2</title>
<g id="a_edge1_Node000001_Node000002"><a xlink:title=" ">
<path fill="none" stroke="#63b8ff" d="M94.51,-58.19C85.36,-49.11 75.08,-38.9 66.94,-30.83"/>
<polygon fill="#63b8ff" stroke="#63b8ff" points="91.86,-60.49 101.43,-65.05 96.79,-55.52 91.86,-60.49"/>
</a>
</g>
</g>
<!-- Node3 -->
<g id="Node000003" class="node">
<title>Node3</title>
<g id="a_Node000003"><a xlink:href="structjaut_1_1SplitPanel_1_1InitStyle.html" target="_top" xlink:title="The style options for constructing this panel.">
<polygon fill="white" stroke="#666666" points="242.38,-24.88 122.12,-24.88 122.12,-5.63 242.38,-5.63 242.38,-24.88"/>
<text text-anchor="middle" x="182.25" y="-11.38" font-family="Helvetica,sans-Serif" font-size="10.00">jaut::SplitPanel::InitStyle</text>
</a>
</g>
</g>
<!-- Node1&#45;&gt;Node3 -->
<g id="edge2_Node000001_Node000003" class="edge">
<title>Node1&#45;&gt;Node3</title>
<g id="a_edge2_Node000001_Node000003"><a xlink:title=" ">
<path fill="none" stroke="#63b8ff" d="M139.97,-58.21C151.48,-46.78 164.79,-33.57 173.36,-25.07"/>
<polygon fill="#63b8ff" stroke="#63b8ff" points="137.71,-55.52 133.07,-65.05 142.64,-60.49 137.71,-55.52"/>
</a>
</g>
</g>
</g>
</svg>
