<?xml version="1.0" encoding="UTF-8" standalone="no"?>
<!DOCTYPE svg PUBLIC "-//W3C//DTD SVG 1.1//EN"
 "http://www.w3.org/Graphics/SVG/1.1/DTD/svg11.dtd">
<!-- Generated by graphviz version 9.0.0 (20230911.1827)
 -->
<!-- Title: jaut::SplitPanel::InitStyle Pages: 1 -->
<svg width="240pt" height="94pt"
 viewBox="0.00 0.00 240.12 93.75" xmlns="http://www.w3.org/2000/svg" xmlns:xlink="http://www.w3.org/1999/xlink">
<g id="graph0" class="graph" transform="scale(1 1) rotate(0) translate(4 89.75)">
<title>jaut::SplitPanel::InitStyle</title>
<!-- Node1 -->
<g id="Node000001" class="node">
<title>Node1</title>
<g id="a_Node000001"><a xlink:title="The style options for constructing this panel.">
<polygon fill="#999999" stroke="#666666" points="175.5,-19.25 55.25,-19.25 55.25,0 175.5,0 175.5,-19.25"/>
<text text-anchor="middle" x="115.38" y="-5.75" font-family="Helvetica,sans-Serif" font-size="10.00">jaut::SplitPanel::InitStyle</text>
</a>
</g>
</g>
<!-- Node2 -->
<g id="Node000002" class="node">
<title>Node2</title>
<g id="a_Node000002"><a xlink:href="structjaut_1_1SplitPanel_1_1Style.html" target="_top" xlink:title=" ">
<polygon fill="white" stroke="#666666" points="106.75,-80.12 0,-80.12 0,-60.88 106.75,-60.88 106.75,-80.12"/>
<text text-anchor="middle" x="53.38" y="-66.62" font-family="Helvetica,sans-Serif" font-size="10.00">jaut::SplitPanel::Style</text>
</a>
</g>
</g>
<!-- Node2&#45;&gt;Node1 -->
<g id="edge1_Node000001_Node000002" class="edge">
<title>Node2&#45;&gt;Node1</title>
<g id="a_edge1_Node000001_Node000002"><a xlink:title=" ">
<path fill="none" stroke="#63b8ff" d="M71.09,-52.68C82.41,-41.93 96.64,-28.41 105.87,-19.65"/>
<polygon fill="#63b8ff" stroke="#63b8ff" points="68.73,-50.09 63.89,-59.52 73.55,-55.17 68.73,-50.09"/>
</a>
</g>
</g>
<!-- Node3 -->
<g id="Node000003" class="node">
<title>Node3</title>
<g id="a_Node000003"><a xlink:href="structjaut_1_1ExtraComponent_1_1ContainerStyle.html" target="_top" xlink:title="The container style options for any component inheriting from this component.">
<polygon fill="white" stroke="#666666" points="232.12,-85.75 124.62,-85.75 124.62,-55.25 232.12,-55.25 232.12,-85.75"/>
<text text-anchor="start" x="132.62" y="-72.25" font-family="Helvetica,sans-Serif" font-size="10.00">jaut::ExtraComponent</text>
<text text-anchor="middle" x="178.38" y="-61" font-family="Helvetica,sans-Serif" font-size="10.00">::ContainerStyle</text>
</a>
</g>
</g>
<!-- Node3&#45;&gt;Node1 -->
<g id="edge2_Node000001_Node000003" class="edge">
<title>Node3&#45;&gt;Node1</title>
<g id="a_edge2_Node000001_Node000003"><a xlink:title=" ">
<path fill="none" stroke="#63b8ff" d="M154.58,-47.26C144.34,-37.69 132.94,-27.04 125.09,-19.7"/>
<polygon fill="#63b8ff" stroke="#63b8ff" points="152,-49.64 161.7,-53.91 156.78,-44.53 152,-49.64"/>
</a>
</g>
</g>
</g>
</svg>
