<?xml version="1.0" encoding="UTF-8" standalone="no"?>
<!DOCTYPE svg PUBLIC "-//W3C//DTD SVG 1.1//EN"
 "http://www.w3.org/Graphics/SVG/1.1/DTD/svg11.dtd">
<!-- Generated by graphviz version 9.0.0 (20230911.1827)
 -->
<!-- Title: jaut::ILogSink Pages: 1 -->
<svg width="270pt" height="162pt"
 viewBox="0.00 0.00 270.25 161.88" xmlns="http://www.w3.org/2000/svg" xmlns:xlink="http://www.w3.org/1999/xlink">
<g id="graph0" class="graph" transform="scale(1 1) rotate(0) translate(4 157.88)">
<title>jaut::ILogSink</title>
<!-- Node1 -->
<g id="Node000001" class="node">
<title>Node1</title>
<g id="a_Node000001"><a xlink:title="Sinks are the actual output implementations, they will be there to map a logger to an output stream.">
<polygon fill="#999999" stroke="#666666" points="75.25,-83.25 0,-83.25 0,-64 75.25,-64 75.25,-83.25"/>
<text text-anchor="middle" x="37.62" y="-69.75" font-family="Helvetica,sans-Serif" font-size="10.00">jaut::ILogSink</text>
</a>
</g>
</g>
<!-- Node2 -->
<g id="Node000002" class="node">
<title>Node2</title>
<g id="a_Node000002"><a xlink:href="classjaut_1_1LogSinkOstream.html" target="_top" xlink:title=" ">
<polygon fill="white" stroke="#666666" points="262.25,-153.88 111.25,-153.88 111.25,-123.38 262.25,-123.38 262.25,-153.88"/>
<text text-anchor="start" x="119.25" y="-140.38" font-family="Helvetica,sans-Serif" font-size="10.00">jaut::LogSinkOstream</text>
<text text-anchor="middle" x="186.75" y="-129.12" font-family="Helvetica,sans-Serif" font-size="10.00">&lt; juce::DummyCriticalSection &gt;</text>
</a>
</g>
</g>
<!-- Node1&#45;&gt;Node2 -->
<g id="edge1_Node000001_Node000002" class="edge">
<title>Node1&#45;&gt;Node2</title>
<g id="a_edge1_Node000001_Node000002"><a xlink:title=" ">
<path fill="none" stroke="#63b8ff" d="M63.95,-89.6C77.61,-97.78 94.97,-107.5 111.25,-114.62 117.97,-117.57 125.17,-120.34 132.35,-122.88"/>
<polygon fill="#63b8ff" stroke="#63b8ff" points="65.95,-86.72 55.59,-84.49 62.3,-92.69 65.95,-86.72"/>
</a>
</g>
</g>
<!-- Node3 -->
<g id="Node000003" class="node">
<title>Node3</title>
<g id="a_Node000003"><a xlink:href="classjaut_1_1LogSinkFile.html" target="_top" xlink:title="A Logger output sink for log files.">
<polygon fill="white" stroke="#666666" points="230.75,-105.25 142.75,-105.25 142.75,-86 230.75,-86 230.75,-105.25"/>
<text text-anchor="middle" x="186.75" y="-91.75" font-family="Helvetica,sans-Serif" font-size="10.00">jaut::LogSinkFile</text>
</a>
</g>
</g>
<!-- Node1&#45;&gt;Node3 -->
<g id="edge2_Node000001_Node000003" class="edge">
<title>Node1&#45;&gt;Node3</title>
<g id="a_edge2_Node000001_Node000003"><a xlink:title=" ">
<path fill="none" stroke="#63b8ff" d="M86.52,-80.79C104.52,-83.48 124.86,-86.52 142.42,-89.15"/>
<polygon fill="#63b8ff" stroke="#63b8ff" points="87.28,-77.36 76.87,-79.34 86.24,-84.28 87.28,-77.36"/>
</a>
</g>
</g>
<!-- Node4 -->
<g id="Node000004" class="node">
<title>Node4</title>
<g id="a_Node000004"><a xlink:href="classjaut_1_1LogSinkOstream.html" target="_top" xlink:title="A Logger output sink for the standard std::ostream.">
<polygon fill="white" stroke="#666666" points="241.62,-67.88 131.88,-67.88 131.88,-37.38 241.62,-37.38 241.62,-67.88"/>
<text text-anchor="start" x="139.88" y="-54.38" font-family="Helvetica,sans-Serif" font-size="10.00">jaut::LogSinkOstream</text>
<text text-anchor="middle" x="186.75" y="-43.12" font-family="Helvetica,sans-Serif" font-size="10.00">&lt; CriticalSection &gt;</text>
</a>
</g>
</g>
<!-- Node1&#45;&gt;Node4 -->
<g id="edge3_Node000001_Node000004" class="edge">
<title>Node1&#45;&gt;Node4</title>
<g id="a_edge3_Node000001_Node000004"><a xlink:title=" ">
<path fill="none" stroke="#63b8ff" d="M86.51,-66.79C100.86,-64.74 116.69,-62.48 131.42,-60.38"/>
<polygon fill="#63b8ff" stroke="#63b8ff" points="86.27,-63.29 76.87,-68.17 87.26,-70.22 86.27,-63.29"/>
</a>
</g>
</g>
<!-- Node5 -->
<g id="Node000005" class="node">
<title>Node5</title>
<g id="a_Node000005"><a xlink:href="classjaut_1_1LogSinkRotatingFile.html" target="_top" xlink:title="A Logger output sink for log files.">
<polygon fill="white" stroke="#666666" points="248.75,-19.25 124.75,-19.25 124.75,0 248.75,0 248.75,-19.25"/>
<text text-anchor="middle" x="186.75" y="-5.75" font-family="Helvetica,sans-Serif" font-size="10.00">jaut::LogSinkRotatingFile</text>
</a>
</g>
</g>
<!-- Node1&#45;&gt;Node5 -->
<g id="edge4_Node000001_Node000005" class="edge">
<title>Node1&#45;&gt;Node5</title>
<g id="a_edge4_Node000001_Node000005"><a xlink:title=" ">
<path fill="none" stroke="#63b8ff" d="M61.08,-57.22C74.95,-47.72 93.46,-36.19 111.25,-28.62 119.48,-25.12 128.5,-22.15 137.34,-19.68"/>
<polygon fill="#63b8ff" stroke="#63b8ff" points="59.28,-54.2 53.1,-62.81 63.3,-59.93 59.28,-54.2"/>
</a>
</g>
</g>
</g>
</svg>
